<mxfile host="app.diagrams.net" agent="Mozilla/5.0 (Windows NT 10.0; Win64; x64) AppleWebKit/537.36 (KHTML, like Gecko) Chrome/130.0.0.0 Safari/537.36" version="24.8.4">
  <diagram name="PÃ¡gina-1" id="OaYliGAIudep0e7oLeqe">
    <mxGraphModel dx="1114" dy="558" grid="1" gridSize="10" guides="1" tooltips="1" connect="1" arrows="1" fold="1" page="1" pageScale="1" pageWidth="827" pageHeight="1169" math="0" shadow="0">
      <root>
        <mxCell id="0" />
        <mxCell id="1" parent="0" />
        <mxCell id="auQA3VDWCA16ha1mFTgm-1" value="Usuario&lt;div&gt;Duoc&lt;/div&gt;" style="shape=umlActor;verticalLabelPosition=bottom;verticalAlign=top;html=1;outlineConnect=0;" vertex="1" parent="1">
          <mxGeometry x="120" y="140" width="40" height="70" as="geometry" />
        </mxCell>
        <mxCell id="auQA3VDWCA16ha1mFTgm-4" value="Usuario&amp;nbsp;&lt;div&gt;Admin&lt;/div&gt;" style="shape=umlActor;verticalLabelPosition=bottom;verticalAlign=top;html=1;outlineConnect=0;" vertex="1" parent="1">
          <mxGeometry x="120" y="340" width="40" height="70" as="geometry" />
        </mxCell>
        <mxCell id="auQA3VDWCA16ha1mFTgm-5" value="" style="endArrow=classic;html=1;rounded=0;" edge="1" parent="1">
          <mxGeometry width="50" height="50" relative="1" as="geometry">
            <mxPoint x="110" y="380" as="sourcePoint" />
            <mxPoint x="130" y="175" as="targetPoint" />
            <Array as="points">
              <mxPoint x="80" y="380" />
              <mxPoint x="80" y="175" />
            </Array>
          </mxGeometry>
        </mxCell>
        <mxCell id="auQA3VDWCA16ha1mFTgm-8" value="" style="swimlane;startSize=0;fillColor=#006aff;strokeColor=#6c8ebf;gradientColor=none;swimlaneFillColor=#d7f9ea;" vertex="1" parent="1">
          <mxGeometry x="240" y="40" width="280" height="480" as="geometry" />
        </mxCell>
        <mxCell id="auQA3VDWCA16ha1mFTgm-11" value="&lt;b&gt;&lt;font color=&quot;#0000ff&quot;&gt;Duoc Swap&lt;/font&gt;&lt;/b&gt;" style="text;html=1;align=center;verticalAlign=middle;whiteSpace=wrap;rounded=0;" vertex="1" parent="auQA3VDWCA16ha1mFTgm-8">
          <mxGeometry x="90" width="100" height="30" as="geometry" />
        </mxCell>
        <mxCell id="auQA3VDWCA16ha1mFTgm-12" value="&lt;font style=&quot;font-size: 11px;&quot;&gt;Autenticar Usuario&lt;/font&gt;" style="ellipse;whiteSpace=wrap;html=1;fillColor=#dae8fc;strokeColor=#6c8ebf;" vertex="1" parent="auQA3VDWCA16ha1mFTgm-8">
          <mxGeometry x="20" y="40" width="120" height="30" as="geometry" />
        </mxCell>
        <mxCell id="auQA3VDWCA16ha1mFTgm-13" value="&lt;font style=&quot;font-size: 11px;&quot;&gt;Registrar Usuario&lt;/font&gt;" style="ellipse;whiteSpace=wrap;html=1;fillColor=#dae8fc;strokeColor=#6c8ebf;" vertex="1" parent="auQA3VDWCA16ha1mFTgm-8">
          <mxGeometry x="114" y="70" width="120" height="30" as="geometry" />
        </mxCell>
        <mxCell id="auQA3VDWCA16ha1mFTgm-14" value="&lt;span style=&quot;font-size: 11px;&quot;&gt;Publicar Producto&lt;/span&gt;" style="ellipse;whiteSpace=wrap;html=1;fillColor=#dae8fc;strokeColor=#6c8ebf;" vertex="1" parent="auQA3VDWCA16ha1mFTgm-8">
          <mxGeometry x="20" y="100" width="120" height="30" as="geometry" />
        </mxCell>
        <mxCell id="auQA3VDWCA16ha1mFTgm-15" value="&lt;span style=&quot;font-size: 11px;&quot;&gt;Buscar Producto&lt;/span&gt;" style="ellipse;whiteSpace=wrap;html=1;fillColor=#dae8fc;strokeColor=#6c8ebf;" vertex="1" parent="auQA3VDWCA16ha1mFTgm-8">
          <mxGeometry x="114" y="130" width="120" height="30" as="geometry" />
        </mxCell>
        <mxCell id="auQA3VDWCA16ha1mFTgm-16" value="&lt;span style=&quot;font-size: 11px;&quot;&gt;Seleccionar Producto&lt;/span&gt;" style="ellipse;whiteSpace=wrap;html=1;fillColor=#dae8fc;strokeColor=#6c8ebf;" vertex="1" parent="auQA3VDWCA16ha1mFTgm-8">
          <mxGeometry x="20" y="160" width="120" height="30" as="geometry" />
        </mxCell>
        <mxCell id="auQA3VDWCA16ha1mFTgm-17" value="&lt;span style=&quot;font-size: 11px;&quot;&gt;Ingresar a Foro&lt;/span&gt;" style="ellipse;whiteSpace=wrap;html=1;fillColor=#dae8fc;strokeColor=#6c8ebf;" vertex="1" parent="auQA3VDWCA16ha1mFTgm-8">
          <mxGeometry x="54" y="200" width="120" height="30" as="geometry" />
        </mxCell>
        <mxCell id="auQA3VDWCA16ha1mFTgm-18" value="&lt;span style=&quot;font-size: 11px;&quot;&gt;Generar Match&lt;/span&gt;" style="ellipse;whiteSpace=wrap;html=1;fillColor=#dae8fc;strokeColor=#6c8ebf;" vertex="1" parent="auQA3VDWCA16ha1mFTgm-8">
          <mxGeometry x="90" y="240" width="120" height="30" as="geometry" />
        </mxCell>
        <mxCell id="auQA3VDWCA16ha1mFTgm-26" value="&lt;span style=&quot;font-size: 11px;&quot;&gt;Administrar Foro&lt;/span&gt;" style="ellipse;whiteSpace=wrap;html=1;fillColor=#dae8fc;strokeColor=#6c8ebf;" vertex="1" parent="auQA3VDWCA16ha1mFTgm-8">
          <mxGeometry x="54" y="290" width="120" height="30" as="geometry" />
        </mxCell>
        <mxCell id="auQA3VDWCA16ha1mFTgm-27" value="&lt;span style=&quot;font-size: 11px;&quot;&gt;Eliminar Estudiantes&lt;/span&gt;" style="ellipse;whiteSpace=wrap;html=1;fillColor=#dae8fc;strokeColor=#6c8ebf;" vertex="1" parent="auQA3VDWCA16ha1mFTgm-8">
          <mxGeometry x="130" y="340" width="120" height="30" as="geometry" />
        </mxCell>
        <mxCell id="auQA3VDWCA16ha1mFTgm-28" value="&lt;span style=&quot;font-size: 11px;&quot;&gt;Responder solicitudes&lt;/span&gt;" style="ellipse;whiteSpace=wrap;html=1;fillColor=#dae8fc;strokeColor=#6c8ebf;" vertex="1" parent="auQA3VDWCA16ha1mFTgm-8">
          <mxGeometry x="60" y="390" width="120" height="30" as="geometry" />
        </mxCell>
        <mxCell id="auQA3VDWCA16ha1mFTgm-19" value="" style="endArrow=none;html=1;rounded=0;entryX=0;entryY=0.5;entryDx=0;entryDy=0;" edge="1" parent="1" target="auQA3VDWCA16ha1mFTgm-12">
          <mxGeometry width="50" height="50" relative="1" as="geometry">
            <mxPoint x="160" y="130" as="sourcePoint" />
            <mxPoint x="200" y="70" as="targetPoint" />
          </mxGeometry>
        </mxCell>
        <mxCell id="auQA3VDWCA16ha1mFTgm-20" value="" style="endArrow=none;html=1;rounded=0;entryX=0;entryY=0.5;entryDx=0;entryDy=0;" edge="1" parent="1" target="auQA3VDWCA16ha1mFTgm-13">
          <mxGeometry width="50" height="50" relative="1" as="geometry">
            <mxPoint x="170" y="140" as="sourcePoint" />
            <mxPoint x="350" y="170" as="targetPoint" />
          </mxGeometry>
        </mxCell>
        <mxCell id="auQA3VDWCA16ha1mFTgm-21" value="" style="endArrow=none;html=1;rounded=0;entryX=0;entryY=0.5;entryDx=0;entryDy=0;" edge="1" parent="1" target="auQA3VDWCA16ha1mFTgm-14">
          <mxGeometry width="50" height="50" relative="1" as="geometry">
            <mxPoint x="170" y="155" as="sourcePoint" />
            <mxPoint x="350" y="170" as="targetPoint" />
          </mxGeometry>
        </mxCell>
        <mxCell id="auQA3VDWCA16ha1mFTgm-22" value="" style="endArrow=none;html=1;rounded=0;entryX=0;entryY=0.5;entryDx=0;entryDy=0;" edge="1" parent="1" target="auQA3VDWCA16ha1mFTgm-15">
          <mxGeometry width="50" height="50" relative="1" as="geometry">
            <mxPoint x="170" y="170" as="sourcePoint" />
            <mxPoint x="350" y="170" as="targetPoint" />
          </mxGeometry>
        </mxCell>
        <mxCell id="auQA3VDWCA16ha1mFTgm-23" value="" style="endArrow=none;html=1;rounded=0;entryX=0;entryY=0.5;entryDx=0;entryDy=0;" edge="1" parent="1" target="auQA3VDWCA16ha1mFTgm-16">
          <mxGeometry width="50" height="50" relative="1" as="geometry">
            <mxPoint x="170" y="180" as="sourcePoint" />
            <mxPoint x="350" y="170" as="targetPoint" />
          </mxGeometry>
        </mxCell>
        <mxCell id="auQA3VDWCA16ha1mFTgm-24" value="" style="endArrow=none;html=1;rounded=0;entryX=0;entryY=0.5;entryDx=0;entryDy=0;" edge="1" parent="1" target="auQA3VDWCA16ha1mFTgm-17">
          <mxGeometry width="50" height="50" relative="1" as="geometry">
            <mxPoint x="170" y="200" as="sourcePoint" />
            <mxPoint x="350" y="250" as="targetPoint" />
          </mxGeometry>
        </mxCell>
        <mxCell id="auQA3VDWCA16ha1mFTgm-25" value="" style="endArrow=none;html=1;rounded=0;entryX=0;entryY=0.5;entryDx=0;entryDy=0;" edge="1" parent="1" target="auQA3VDWCA16ha1mFTgm-18">
          <mxGeometry width="50" height="50" relative="1" as="geometry">
            <mxPoint x="170" y="220" as="sourcePoint" />
            <mxPoint x="200" y="280" as="targetPoint" />
          </mxGeometry>
        </mxCell>
        <mxCell id="auQA3VDWCA16ha1mFTgm-29" value="" style="endArrow=none;html=1;rounded=0;entryX=0;entryY=0.5;entryDx=0;entryDy=0;" edge="1" parent="1" target="auQA3VDWCA16ha1mFTgm-26">
          <mxGeometry width="50" height="50" relative="1" as="geometry">
            <mxPoint x="170" y="350" as="sourcePoint" />
            <mxPoint x="160" y="500" as="targetPoint" />
          </mxGeometry>
        </mxCell>
        <mxCell id="auQA3VDWCA16ha1mFTgm-30" value="" style="endArrow=none;html=1;rounded=0;entryX=0;entryY=0.5;entryDx=0;entryDy=0;" edge="1" parent="1" target="auQA3VDWCA16ha1mFTgm-27">
          <mxGeometry width="50" height="50" relative="1" as="geometry">
            <mxPoint x="170" y="370" as="sourcePoint" />
            <mxPoint x="170" y="460" as="targetPoint" />
          </mxGeometry>
        </mxCell>
        <mxCell id="auQA3VDWCA16ha1mFTgm-31" value="" style="endArrow=none;html=1;rounded=0;entryX=0;entryY=0.5;entryDx=0;entryDy=0;" edge="1" parent="1" target="auQA3VDWCA16ha1mFTgm-28">
          <mxGeometry width="50" height="50" relative="1" as="geometry">
            <mxPoint x="170" y="390" as="sourcePoint" />
            <mxPoint x="60" y="470" as="targetPoint" />
          </mxGeometry>
        </mxCell>
      </root>
    </mxGraphModel>
  </diagram>
</mxfile>
